# xmcd
#
# Track frame offsets: 
#        150
#        18477
#        36741
#        53571
#        72327
#        91386
#        108974
#        129269
#        157335
#        176249
#        198636
#        216928
#        240776
#        263734
#        286565
#        305525
#        322398
#
# Disc length: 4565 seconds
#
# Revision: 1
# Processed by: cddbd v1.5.2PL0 Copyright (c) Steve Scherf et al.
# Submitted via: ExactAudioCopy v1.0b4
#
DISCID=fb11d311
DTITLE=The Kinks - Picture Book [CD6]
DYEAR=2008
DGENRE=Classic Rock
TTITLE0=Heart Of Gold
TTITLE1=Come Dancing [Demo]
TTITLE2=State Of Confusion
TTITLE3=Do It Again
TTITLE4=Living On A Thin Line
TTITLE5=Summer's Gone
TTITLE6=How Are You
TTITLE7=The Road [Live]
TTITLE8=Million Pound Semi-Detached
TTITLE9=Down All The Days (To 1992)
TTITLE10=The Informer
TTITLE11=Phobia
TTITLE12=Only A Dream
TTITLE13=Drift Away
TTITLE14=Scattered
TTITLE15=Do You Remember Walter [Live]
TTITLE16=To The Bone
EXTD=
EXTT0=
EXTT1=
EXTT2=
EXTT3=
EXTT4=
EXTT5=
EXTT6=
EXTT7=
EXTT8=
EXTT9=
EXTT10=
EXTT11=
EXTT12=
EXTT13=
EXTT14=
EXTT15=
EXTT16=
PLAYORDER=
